<svg xmlns="http://www.w3.org/2000/svg"
     viewBox="0 0 64 64"
     width="24" height="24"
     fill="none">

  <!-- NOTE BODY -->
  <path
    d="M14 6 H44 L56 18 V56
       Q56 60 52 60 H14
       Q10 60 10 56 V10
       Q10 6 14 6 Z"
    fill="#FDE68A"
    stroke="#F59E0B"
    stroke-width="2.5"
    stroke-linejoin="round"
  />

  <!-- FOLDED CORNER (clearly folded) -->
  <path d="M44 6 V18 H56 Z"
        fill="#FEF3C7"
        stroke="#F59E0B"
        stroke-width="2.5"
        stroke-linejoin="round"/>

  <!-- NOTE LINES (3) -->
  <line x1="18" y1="16" x2="40" y2="16" stroke="#3B82F6" stroke-width="2" stroke-linecap="round"/>
  <line x1="18" y1="22" x2="46" y2="22" stroke="#3B82F6" stroke-width="2" stroke-linecap="round"/>
  <line x1="18" y1="28" x2="42" y2="28" stroke="#3B82F6" stroke-width="2" stroke-linecap="round"/>

  <!-- BELL (centered) -->
  <path
    d="M32 30
       c-5 0-8 4-8 9v4
       l-3 3v2h22v-2l-3-3v-4
       c0-5-3-9-8-9z"
    fill="#374151"
  />
  <circle cx="32" cy="50" r="2.2" fill="#374151"/>

  <!-- RINGING MOTION -->
  <path d="M20 34c-3 3-3 9 0 12" stroke="#374151" stroke-width="2.5" stroke-linecap="round"/>
  <path d="M44 34c3 3 3 9 0 12" stroke="#374151" stroke-width="2.5" stroke-linecap="round"/>

</svg>
