<svg xmlns="http://www.w3.org/2000/svg" xmlns:xlink="http://www.w3.org/1999/xlink" version="1.1" width="256" height="256" viewBox="0 0 256 256" xml:space="preserve">
<g style="stroke: none; stroke-width: 0; stroke-dasharray: none; stroke-linecap: butt; stroke-linejoin: miter; stroke-miterlimit: 10; fill: none; fill-rule: nonzero; opacity: 1;" transform="translate(1.4065934065934016 1.4065934065934016) scale(2.81 2.81)">
	<path d="M 23.699 76.404 c -0.552 0 -1 -0.447 -1 -1 V 40.93 c 0 -0.552 0.448 -1 1 -1 s 1 0.448 1 1 v 34.475 C 24.699 75.957 24.251 76.404 23.699 76.404 z" style="stroke: none; stroke-width: 1; stroke-dasharray: none; stroke-linecap: butt; stroke-linejoin: miter; stroke-miterlimit: 10; fill: rgb(197,233,125); fill-rule: nonzero; opacity: 1;" transform=" matrix(1 0 0 1 0 0) " stroke-linecap="round"/>
	<path d="M 12.347 41.413 c 1.381 0.521 2.814 0.789 4.301 0.724 c -1.242 0.822 -2.244 1.882 -3.055 3.116 c -3.408 5.183 4.211 10.719 8.088 5.876 c 0.923 -1.153 1.622 -2.434 2.02 -3.869 c 0.398 1.434 1.096 2.714 2.017 3.866 c 3.875 4.845 11.498 -0.693 8.087 -5.876 c -0.811 -1.233 -1.813 -2.292 -3.054 -3.113 c 1.487 0.065 2.919 -0.204 4.3 -0.724 c 5.805 -2.188 2.893 -11.149 -3.089 -9.507 c -1.423 0.391 -2.739 1.015 -3.904 1.942 c 0.522 -1.396 0.709 -2.843 0.64 -4.32 c -0.29 -6.197 -9.707 -6.197 -9.997 0 c -0.069 1.476 0.118 2.924 0.64 4.32 c -1.165 -0.926 -2.482 -1.552 -3.905 -1.942 C 9.453 30.265 6.542 39.224 12.347 41.413 z" style="stroke: none; stroke-width: 1; stroke-dasharray: none; stroke-linecap: butt; stroke-linejoin: miter; stroke-miterlimit: 10; fill: rgb(238,174,75); fill-rule: nonzero; opacity: 1;" transform=" matrix(1 0 0 1 0 0) " stroke-linecap="round"/>
	<circle cx="23.695999999999998" cy="39.846000000000004" r="3.926" style="stroke: none; stroke-width: 1; stroke-dasharray: none; stroke-linecap: butt; stroke-linejoin: miter; stroke-miterlimit: 10; fill: rgb(219,88,0); fill-rule: nonzero; opacity: 1;" transform="  matrix(1 0 0 1 0 0) "/>
	<path d="M 45 76.404 c -0.552 0 -1 -0.447 -1 -1 V 16.049 c 0 -0.552 0.448 -1 1 -1 s 1 0.448 1 1 v 59.355 C 46 75.957 45.552 76.404 45 76.404 z" style="stroke: none; stroke-width: 1; stroke-dasharray: none; stroke-linecap: butt; stroke-linejoin: miter; stroke-miterlimit: 10; fill: rgb(197,233,125); fill-rule: nonzero; opacity: 1;" transform=" matrix(1 0 0 1 0 0) " stroke-linecap="round"/>
	<path d="M 33.648 16.533 c 1.381 0.521 2.814 0.789 4.301 0.725 c -1.242 0.822 -2.244 1.882 -3.055 3.116 c -3.408 5.183 4.211 10.719 8.088 5.876 c 0.923 -1.153 1.622 -2.434 2.02 -3.869 c 0.398 1.434 1.096 2.714 2.017 3.866 c 3.875 4.845 11.498 -0.693 8.087 -5.876 c -0.811 -1.233 -1.813 -2.292 -3.054 -3.113 c 1.487 0.065 2.919 -0.204 4.3 -0.724 c 5.805 -2.188 2.893 -11.149 -3.089 -9.507 c -1.423 0.391 -2.739 1.015 -3.904 1.942 c 0.522 -1.396 0.709 -2.843 0.64 -4.32 c -0.29 -6.197 -9.707 -6.197 -9.997 0 c -0.069 1.476 0.118 2.924 0.64 4.32 c -1.165 -0.926 -2.482 -1.552 -3.905 -1.942 C 30.755 5.384 27.843 14.344 33.648 16.533 z" style="stroke: none; stroke-width: 1; stroke-dasharray: none; stroke-linecap: butt; stroke-linejoin: miter; stroke-miterlimit: 10; fill: rgb(251,227,114); fill-rule: nonzero; opacity: 1;" transform=" matrix(1 0 0 1 0 0) " stroke-linecap="round"/>
	<circle cx="44.996" cy="14.966" r="3.926" style="stroke: none; stroke-width: 1; stroke-dasharray: none; stroke-linecap: butt; stroke-linejoin: miter; stroke-miterlimit: 10; fill: rgb(244,172,3); fill-rule: nonzero; opacity: 1;" transform="  matrix(1 0 0 1 0 0) "/>
	<path d="M 65.166 76.404 c -0.553 0 -1 -0.447 -1 -1 V 51.297 c 0 -0.553 0.447 -1 1 -1 s 1 0.447 1 1 v 24.107 C 66.166 75.957 65.719 76.404 65.166 76.404 z" style="stroke: none; stroke-width: 1; stroke-dasharray: none; stroke-linecap: butt; stroke-linejoin: miter; stroke-miterlimit: 10; fill: rgb(197,233,125); fill-rule: nonzero; opacity: 1;" transform=" matrix(1 0 0 1 0 0) " stroke-linecap="round"/>
	<path d="M 53.814 51.78 c 1.381 0.521 2.814 0.789 4.301 0.724 c -1.242 0.822 -2.244 1.882 -3.055 3.116 c -3.408 5.183 4.211 10.719 8.088 5.876 c 0.923 -1.153 1.622 -2.434 2.02 -3.869 c 0.398 1.434 1.096 2.714 2.017 3.866 c 3.875 4.845 11.498 -0.693 8.087 -5.876 c -0.811 -1.233 -1.813 -2.292 -3.054 -3.113 c 1.487 0.065 2.919 -0.204 4.3 -0.724 c 5.805 -2.188 2.893 -11.149 -3.089 -9.507 c -1.423 0.391 -2.739 1.015 -3.904 1.942 c 0.522 -1.396 0.709 -2.843 0.64 -4.32 c -0.29 -6.197 -9.707 -6.197 -9.997 0 c -0.069 1.476 0.118 2.924 0.64 4.32 c -1.165 -0.926 -2.482 -1.552 -3.905 -1.942 C 50.92 40.631 48.009 49.591 53.814 51.78 z" style="stroke: none; stroke-width: 1; stroke-dasharray: none; stroke-linecap: butt; stroke-linejoin: miter; stroke-miterlimit: 10; fill: rgb(232,146,144); fill-rule: nonzero; opacity: 1;" transform=" matrix(1 0 0 1 0 0) " stroke-linecap="round"/>
	<circle cx="65.166" cy="50.216" r="3.926" style="stroke: none; stroke-width: 1; stroke-dasharray: none; stroke-linecap: butt; stroke-linejoin: miter; stroke-miterlimit: 10; fill: rgb(193,87,87); fill-rule: nonzero; opacity: 1;" transform="  matrix(1 0 0 1 0 0) "/>
	<path d="M 79.935 80.057 h -8.633 c -1.166 -4.007 -4.858 -6.937 -9.241 -6.937 c -1.693 0 -3.283 0.44 -4.665 1.208 c -2.336 -4.467 -7.006 -7.52 -12.395 -7.52 s -10.06 3.053 -12.395 7.52 c -1.383 -0.768 -2.972 -1.208 -4.665 -1.208 c -4.383 0 -8.075 2.931 -9.241 6.937 h -8.633 c -1.092 0 -1.976 0.885 -1.976 1.976 v 5.99 c 0 1.091 0.885 1.976 1.976 1.976 h 69.87 c 1.092 0 1.976 -0.885 1.976 -1.976 v -5.99 C 81.911 80.942 81.026 80.057 79.935 80.057 z" style="stroke: none; stroke-width: 1; stroke-dasharray: none; stroke-linecap: butt; stroke-linejoin: miter; stroke-miterlimit: 10; fill: rgb(190,143,125); fill-rule: nonzero; opacity: 1;" transform=" matrix(1 0 0 1 0 0) " stroke-linecap="round"/>
</g>
</svg>